<svg xmlns="http://www.w3.org/2000/svg"  viewBox="0 0 48 48" width="50px" height="50px"><rect width="30" height="38" x="9" y="5" fill="#3dd9eb"/><rect width="18" height="11" x="16" y="11" fill="#00b3d7"/><rect width="18" height="4" x="16" y="26" fill="#00b3d7"/><rect width="18" height="4" x="16" y="34" fill="#00b3d7"/><path fill="#f5bc00" d="M9,39H8c-2.206,0-4-1.794-4-4s1.794-4,4-4h5v3H8c-0.551,0-1,0.449-1,1s0.449,1,1,1h1V39z"/><path fill="#f5bc00" d="M9,28H8c-2.206,0-4-1.794-4-4s1.794-4,4-4h5v3H8c-0.551,0-1,0.449-1,1s0.449,1,1,1h1V28z"/><path fill="#f5bc00" d="M9,17H8c-2.206,0-4-1.794-4-4s1.794-4,4-4h5v3H8c-0.551,0-1,0.449-1,1s0.449,1,1,1h1V17z"/><rect width="4" height="3" x="9" y="31" fill="#eb7900"/><rect width="4" height="3" x="9" y="20" fill="#eb7900"/><rect width="4" height="3" x="9" y="9" fill="#eb7900"/></svg>