<svg xmlns="http://www.w3.org/2000/svg"  viewBox="0 0 48 48" width="50px" height="50px"><path fill="#6c19ff" d="M24,4L6,12v7.026C6,30.357,13.251,40.417,24,44c10.749-3.583,18-13.643,18-24.974V12L24,4z"/><path fill="#00b3d7" d="M33.5,33h-19l0.812-3.643C15.708,26.848,17.871,25,20.411,25h7.179c2.54,0,4.702,1.848,5.099,4.357 L33.5,33z"/><path fill="#3dd9eb" d="M29.5,21c0-0.389-0.229-0.717-0.553-0.883l0.06-0.502c0.36-3.002-1.984-5.644-5.007-5.644	s-5.367,2.642-5.007,5.644l0.06,0.502C18.729,20.283,18.5,20.611,18.5,21c0,0.485,0.352,0.871,0.811,0.962	c0.451,2.219,2.389,3.852,4.689,3.852s4.238-1.633,4.689-3.852C29.148,21.871,29.5,21.485,29.5,21z"/></svg>