<svg xmlns="http://www.w3.org/2000/svg"  viewBox="0 0 48 48" width="50px" height="50px"><circle cx="24" cy="20" r="16" fill="#f5bc00"/><polygon fill="#6c19ff" points="32,43 24,45 16,43 16,38 32,38"/><rect width="12" height="7" x="18" y="33" fill="#f5bc00"/><rect width="12" height="3" x="18" y="38" fill="#2100c4"/><rect width="4" height="17" x="22" y="21" fill="#eb7900"/><polygon fill="#eb7900" points="24,27.774 17,21 31,21"/><path fill="#6c19ff" d="M20.928,12.835V8.17h-2.712c-0.154-0.527-0.355-1.034-0.599-1.52L19.6,4.783l-3.267-3.267	l-1.867,1.867C14,3.15,13.417,2.917,12.95,2.8V0H8.167v2.683C7.583,2.8,7.117,3.033,6.65,3.267L4.783,1.4L1.4,4.783L3.267,6.65	C3.033,7.117,2.8,7.583,2.683,8.167H0v4.667h2.683c0.117,0.583,0.35,1.05,0.583,1.517L1.4,16.217l3.267,3.267l1.867-1.867	C7,17.85,7.583,18.083,8.05,18.2V21h4.667v-2.683c0.546-0.169,1.067-0.391,1.558-0.658l2.026,2.026l3.299-3.299l-2.02-2.02	c0.261-0.482,0.475-0.994,0.634-1.531H20.928z"/><circle cx="10.5" cy="10.5" r="4.783" fill="#a64aff"/><path fill="#2100c4" d="M8.05,18.728V21h4.667v-2.683c0.546-0.169,1.067-0.391,1.558-0.658l2.026,2.026l3.299-3.299	l-2.02-2.02c0.261-0.482,0.475-0.994,0.634-1.531h2.713V8.17h-2.712c-0.154-0.527-0.355-1.034-0.599-1.52L19.6,4.783l-0.132-0.132	C13.23,6.49,8.577,12.029,8.05,18.728z"/><path fill="#6c19ff" d="M8.806,14.974c0.527,0.2,1.098,0.309,1.694,0.309c2.642,0,4.783-2.142,4.783-4.783	c0-1.184-0.43-2.267-1.143-3.102C11.685,9.322,9.806,11.948,8.806,14.974z"/></svg>