<?xml version="1.0" encoding="UTF-8"?>
<svg id="Layer_1" data-name="Layer 1" xmlns="http://www.w3.org/2000/svg" viewBox="0 0 178.96 66.42">
  <defs>
    <style>
      .cls-1 {
        fill: #f4bc19;
      }

      .cls-2 {
        fill: #ea7a24;
      }

      .cls-3 {
        fill: #825da7;
      }

      .cls-4 {
        fill: #d1bada;
      }

      .cls-5 {
        fill: #3c429b;
      }

      .cls-6 {
        fill: #6154a4;
      }

      .cls-7 {
        fill: #5bc8dd;
      }

      .cls-8 {
        fill: #010101;
        font-family: MyriadPro-Regular, 'Myriad Pro';
        font-size: .59px;
      }

      .cls-9 {
        letter-spacing: 0em;
      }

      .cls-10 {
        letter-spacing: -.01em;
      }
    </style>
  </defs>
  <g>
    <polygon class="cls-6" points="149.99 25.46 147.93 19.12 149.89 18.48 151.22 22.58 155.1 20.71 156 22.56 149.99 25.46"/>
    <polygon class="cls-6" points="152.96 40.11 152 37.83 152.93 35.64 150.09 34.43 150.9 32.53 155.64 34.55 154.24 37.83 154.86 39.32 152.96 40.11"/>
    <polygon class="cls-6" points="145.27 27.33 140.53 25.31 141.93 22.03 141.31 20.55 143.21 19.75 144.17 22.04 143.24 24.22 146.08 25.44 145.27 27.33"/>
    <polygon class="cls-6" points="137.37 33.46 136.63 31.54 138.12 30.96 139.52 27.68 144.26 29.7 143.45 31.6 140.61 30.38 139.68 32.57 137.37 33.46"/>
    <polygon class="cls-6" points="156.65 32.19 151.91 30.16 152.72 28.27 155.56 29.48 156.49 27.3 158.8 26.41 159.54 28.33 158.05 28.91 156.65 32.19"/>
    <path class="cls-1" d="m145.15,36.8h0c-2.62-1.12-3.83-4.14-2.72-6.76l3.03-7.11,9.48,4.04-3.03,7.11c-1.12,2.62-4.14,3.83-6.76,2.72Z"/>
    <circle class="cls-1" cx="150.21" cy="24.96" r="3.61"/>
    <path class="cls-2" d="m148.79,28.27c1.83.78,3.95-.07,4.73-1.9l-6.63-2.83c-.78,1.83.07,3.95,1.9,4.73Z"/>
    <text class="cls-8" transform="translate(151.54 33.42) rotate(23.11)"><tspan class="cls-10" x="0" y="0">L</tspan><tspan x=".27" y="0">o</tspan><tspan class="cls-9" x=".6" y="0">r</tspan><tspan x=".79" y="0">em ipsum</tspan></text>
  </g>
  <g>
    <path class="cls-7" d="m72.2,11.51h2.9c-.22,2.29-1.94,4.09-4.31,4.09h-1.96c-2.49,0-4.53-2.03-4.53-4.53v-6.52c0-2.51,2.03-4.54,4.53-4.54h1.96c2.38,0,4.09,1.81,4.31,4.14h-2.88c-.17-.81-.55-1.43-1.45-1.43h-1.92c-1.06,0-1.74.9-1.74,1.98v6.21c0,1.08.68,1.98,1.74,1.98h1.92c.88,0,1.25-.59,1.43-1.37Z"/>
    <path class="cls-7" d="m94.78,15.6c-2.66,0-4.29-1.69-4.29-4.27v-3.13c0-2.58,1.63-4.25,4.29-4.25h.94c.62,0,1.21.09,1.72.27V0h2.58v15.6h-5.24Zm2.66-2.64v-4.69c0-.99-.75-1.7-1.72-1.7h-.94c-.97,0-1.76.71-1.76,1.7v2.99c0,.99.79,1.7,1.76,1.7h2.66Z"/>
    <path class="cls-7" d="m101.43,8.08c0-2.24,1.89-4.14,3.76-4.14h2.6c2.38,0,3.76,2.22,3.76,4.05v2.95h-7.42v.62c0,1.1.7,1.5,1.69,1.5h5.33v2.57h-5.94c-2.07,0-3.78-1.7-3.78-4v-3.55Zm2.73.7h4.73v-.13c0-1.15-.68-2.05-1.69-2.05h-1.43c-.97,0-1.61.97-1.61,2.05v.13Z"/>
    <g>
      <rect class="cls-7" x="77.45" y="5.97" width="11.09" height="9.24"/>
      <polygon class="cls-6" points="80.24 8.43 78.09 10.59 78.09 10.59 78.09 10.59 80.24 12.75 81.11 11.88 79.83 10.59 81.11 9.3 80.24 8.43"/>
      <polygon class="cls-6" points="87.92 10.59 85.77 8.43 84.9 9.3 86.18 10.59 84.9 11.88 85.77 12.75 87.92 10.59 87.92 10.59 87.92 10.59"/>
      <polygon class="cls-6" points="81.17 13.67 82.5 13.67 84.83 7.51 83.49 7.51 81.17 13.67"/>
      <rect class="cls-6" x="77.45" y="4.12" width="11.09" height="1.85"/>
      <rect class="cls-5" x="78.34" y="9.98" width="1.23" height="1.23" transform="translate(15.64 58.93) rotate(-45)"/>
      <rect class="cls-5" x="86.44" y="9.98" width="1.23" height="1.23" transform="translate(18.01 64.66) rotate(-45)"/>
      <rect class="cls-3" x="87.31" y="4.74" width=".62" height=".62"/>
      <rect class="cls-3" x="86.08" y="4.74" width=".62" height=".62"/>
      <rect class="cls-3" x="84.84" y="4.74" width=".62" height=".62"/>
    </g>
  </g>
  <g>
    <path class="cls-7" d="m59.53,25.59h3.17c-.24,2.51-2.13,4.48-4.72,4.48h-2.15c-2.73,0-4.96-2.23-4.96-4.96v-7.15c0-2.75,2.23-4.98,4.96-4.98h2.15c2.61,0,4.48,1.99,4.72,4.54h-3.15c-.18-.88-.6-1.57-1.59-1.57h-2.11c-1.17,0-1.91.98-1.91,2.17v6.81c0,1.18.74,2.17,1.91,2.17h2.11c.96,0,1.37-.64,1.57-1.51Z"/>
    <path class="cls-7" d="m70.02,17.29c2.93,0,4.72,1.83,4.72,4.66v3.43c0,2.83-1.79,4.68-4.72,4.68h-1.02c-2.91,0-4.7-1.85-4.7-4.68v-3.43c0-2.83,1.79-4.66,4.7-4.66h1.02Zm-1.02,2.87c-1.04,0-1.85.78-1.85,1.87v3.27c0,1.09.8,1.87,1.85,1.87h1.02c1.06,0,1.85-.78,1.85-1.87v-3.27c0-1.08-.78-1.87-1.85-1.87h-1.02Z"/>
    <path class="cls-7" d="m81.83,20.14c-1.77,0-2.11.9-2.11,2.11v7.81h-2.95v-12.77h2.95v.32c.54-.2,1.18-.32,1.87-.32h1.31c2.97,0,4.54,2.19,4.54,4.36v8.41h-2.95v-7.81c0-1.21-.28-2.11-2.05-2.11h-.6Z"/>
    <path class="cls-7" d="m96.14,26.09h2.97c-.28,2.43-1.93,3.98-4.56,3.98h-1.02c-2.91,0-4.72-1.85-4.72-4.68v-3.43c0-2.83,1.81-4.66,4.72-4.66h1.02c2.69,0,4.34,1.55,4.58,4.04h-2.97c-.18-.72-.76-1.17-1.61-1.17h-1.02c-1.06,0-1.85.78-1.85,1.87v3.27c0,1.09.78,1.87,1.85,1.87h1.02c.8,0,1.41-.4,1.59-1.08Z"/>
    <path class="cls-7" d="m100.36,21.83c0-2.45,2.07-4.54,4.12-4.54h2.85c2.61,0,4.12,2.43,4.12,4.44v3.23h-8.13v.68c0,1.21.76,1.65,1.85,1.65h5.84v2.81h-6.51c-2.27,0-4.14-1.87-4.14-4.38v-3.9Zm2.99.76h5.18v-.14c0-1.26-.74-2.25-1.85-2.25h-1.57c-1.06,0-1.77,1.06-1.77,2.25v.14Z"/>
    <path class="cls-7" d="m118.84,17.29c2.91,0,4.72,1.83,4.72,4.66v3.43c0,2.83-1.81,4.68-4.72,4.68h-.8c-.74,0-1.43-.12-2.03-.34v4.7h-2.89v-17.13h5.72Zm-2.83,2.87v5.14c0,1.09.74,1.87,1.81,1.87h1.02c1.06,0,1.85-.78,1.85-1.87v-3.27c0-1.08-.78-1.87-1.85-1.87h-2.83Z"/>
    <path class="cls-7" d="m124.71,17.29h2.37v-4.32h2.95v4.32h2.37v2.87h-2.37v9.9h-2.95v-9.9h-2.37v-2.87Z"/>
  </g>
  <g>
    <path class="cls-5" d="m17.04,57.57h6.25c-.47,4.94-4.19,8.82-9.29,8.82h-4.23c-5.38,0-9.77-4.39-9.77-9.77v-14.08c0-5.42,4.39-9.81,9.77-9.81h4.23c5.14,0,8.82,3.92,9.29,8.94h-6.21c-.36-1.74-1.19-3.08-3.12-3.08h-4.15c-2.29,0-3.76,1.94-3.76,4.27v13.4c0,2.33,1.46,4.27,3.76,4.27h4.15c1.9,0,2.69-1.27,3.08-2.97Z"/>
    <path class="cls-5" d="m37.7,41.24c5.77,0,9.29,3.6,9.29,9.17v6.76c0,5.58-3.52,9.21-9.29,9.21h-2.02c-5.73,0-9.25-3.64-9.25-9.21v-6.76c0-5.58,3.52-9.17,9.25-9.17h2.02Zm-2.02,5.65c-2.06,0-3.64,1.54-3.64,3.68v6.45c0,2.13,1.58,3.68,3.64,3.68h2.02c2.09,0,3.64-1.54,3.64-3.68v-6.45c0-2.13-1.54-3.68-3.64-3.68h-2.02Z"/>
    <path class="cls-5" d="m50.88,32.74h5.81v33.65h-5.81v-33.65Z"/>
    <path class="cls-5" d="m73.33,50.13c0-4.82,4.07-8.93,8.11-8.93h5.62c5.14,0,8.11,4.78,8.11,8.74v6.37h-16.01v1.35c0,2.37,1.5,3.24,3.64,3.24h11.51v5.53h-12.81c-4.47,0-8.14-3.68-8.14-8.62v-7.67Zm5.89,1.5h10.2v-.28c0-2.49-1.46-4.43-3.64-4.43h-3.08c-2.1,0-3.48,2.1-3.48,4.43v.28Z"/>
    <path class="cls-5" d="m112.33,58.52h5.85c-.55,4.78-3.8,7.83-8.97,7.83h-2.02c-5.73,0-9.29-3.64-9.29-9.21v-6.76c0-5.58,3.56-9.17,9.29-9.17h2.02c5.3,0,8.54,3.04,9.02,7.95h-5.85c-.35-1.42-1.5-2.29-3.16-2.29h-2.02c-2.1,0-3.64,1.54-3.64,3.68v6.45c0,2.13,1.54,3.68,3.64,3.68h2.02c1.58,0,2.77-.79,3.12-2.13Z"/>
    <path class="cls-5" d="m119.94,41.2h4.67v-8.5h5.81v8.5h4.67v5.65h-4.67v19.49h-5.81v-19.49h-4.67v-5.65Z"/>
    <path class="cls-5" d="m148.57,41.2c5.77,0,9.29,3.6,9.29,9.17v6.76c0,5.58-3.52,9.21-9.29,9.21h-2.02c-5.73,0-9.25-3.64-9.25-9.21v-6.76c0-5.58,3.52-9.17,9.25-9.17h2.02Zm-2.02,5.65c-2.06,0-3.64,1.54-3.64,3.68v6.45c0,2.13,1.58,3.68,3.64,3.68h2.02c2.1,0,3.64-1.54,3.64-3.68v-6.45c0-2.13-1.54-3.68-3.64-3.68h-2.02Z"/>
    <path class="cls-5" d="m178.28,41.67h.67v6.13h-.67c-4.78,0-10.56,4.27-10.56,8.07v10.48h-6.13v-25.35h6.13v5.34c1.9-3.08,6.37-4.67,10.56-4.67Z"/>
    <g>
      <path class="cls-6" d="m69.93,42.82h-10.09c-1.4,0-2.52,1.13-2.52,2.52v10.93h2.52v10.09h10.09v-10.09h2.52v-10.93c0-1.4-1.13-2.52-2.52-2.52Z"/>
      <path class="cls-5" d="m59.84,42.82h10.09v13.45h-10.09v-13.45Z"/>
      <path class="cls-4" d="m69.09,36.94c0,2.32-1.88,4.2-4.2,4.2s-4.2-1.88-4.2-4.2,1.88-4.2,4.2-4.2,4.2,1.88,4.2,4.2Z"/>
      <path class="cls-6" d="m64.89,32.74c-.77,0-1.48.22-2.1.58v.47c0,1.16.94,2.1,2.1,2.1s2.1-.94,2.1-2.1v-.47c-.62-.36-1.33-.58-2.1-.58Z"/>
      <polygon class="cls-6" points="66.57 49.94 64.89 51.23 63.2 49.94 64.04 42.82 65.73 42.82 66.57 49.94"/>
    </g>
  </g>
</svg>