<svg xmlns="http://www.w3.org/2000/svg"  viewBox="0 0 48 48" width="50px" height="50px"><path fill="#6c19ff" d="M30,16H18c-1.66,0-3,1.34-3,3v13h3v12h12V32h3V19C33,17.34,31.66,16,30,16z"/><path fill="#2100c4" d="M18,16h12v16H18V16z"/><path fill="#ddbaff" d="M29,9c0,2.762-2.238,5-5,5s-5-2.238-5-5s2.238-5,5-5S29,6.238,29,9z"/><path fill="#6c19ff" d="M24,4c-0.914,0-1.762,0.266-2.5,0.691V5.25c0,1.383,1.117,2.5,2.5,2.5s2.5-1.117,2.5-2.5V4.691 C25.762,4.266,24.914,4,24,4z"/><polygon fill="#6c19ff" points="26,24.462 24,26 22,24.462 23,16 25,16"/></svg>