<svg xmlns="http://www.w3.org/2000/svg"  viewBox="0 0 48 48" width="50px" height="50px"><polygon fill="#6c19ff" points="5,46 9,46 9,33 5,32"/><polygon fill="#6c19ff" points="21,46 25,46 25,33 21,36"/><polygon fill="#6c19ff" points="37,46 41,46 41,27 37,28"/><path fill="#00b3d7" d="M28.439,27.036L44,19.735l-2.473-5.771l-10.717,4.946l-4.828,4.374 c-1.437,1.302-0.733,3.81,1.198,3.98C27.588,27.3,28.018,27.233,28.439,27.036z"/><circle cx="31.5" cy="14.5" r="2.5" fill="#3dd9eb"/><circle cx="37.5" cy="11.5" r="2.5" fill="#3dd9eb"/><path fill="#3dd9eb" d="M45.954,22.76L25,32.7L24.37,33l-0.82,0.39c-0.21,0.1-0.42,0.19-0.63,0.28 c-0.21,0.09-0.42,0.17-0.63,0.24c-0.15,0.06-0.31,0.11-0.46,0.16c-0.27,0.09-0.55,0.17-0.83,0.24 c-3.61,0.91-7.47,0.33-10.74-1.69C6.36,30.21,4.08,26.25,4,21.77c0-0.32,0-0.65,0.02-0.98c0.34-7.26,6.29-13.3,13.53-13.76 c3.34-0.21,6.6,0.74,9.27,2.62c0.96-0.95,1.91-1.91,2.87-2.86c-3.52-2.67-7.91-4.03-12.39-3.75C8.05,3.62,0.46,11.34,0.02,20.59 C0,21.01,0,21.43,0,21.84c0.11,5.78,3.15,11.08,8.15,14.18c2.91,1.8,6.18,2.71,9.46,2.71c1.14,0,2.27-0.11,3.39-0.33 c0.01,0,0.03-0.01,0.04-0.01c0.33-0.06,0.66-0.13,0.98-0.22c0.34-0.08,0.68-0.18,1.01-0.29c0.33-0.1,0.67-0.22,0.99-0.35 c0.28-0.11,0.56-0.22,0.83-0.35c0.05-0.02,0.1-0.04,0.15-0.06c0.09-0.04,0.17-0.08,0.26-0.12l20.694-9.82V22.76z"/><path fill="#00b3d7" d="M9,31.75v4.76c-0.29-0.15-0.57-0.32-0.85-0.49C6.99,35.3,5.93,34.46,5,33.52v-6.96 C5.84,28.57,7.2,30.34,9,31.75z"/><path fill="#00b3d7" d="M25,32.7v4.42c-0.05,0.02-0.1,0.04-0.15,0.06c-0.27,0.13-0.55,0.24-0.83,0.35 c-0.32,0.13-0.66,0.25-0.99,0.35c-0.33,0.11-0.67,0.21-1.01,0.29c-0.32,0.09-0.65,0.16-0.98,0.22c-0.01,0-0.03,0.01-0.04,0.01 v-4.09c0.28-0.07,0.56-0.15,0.83-0.24c0.15-0.05,0.31-0.1,0.46-0.16c0.21-0.07,0.42-0.16,0.63-0.24c0.21-0.09,0.42-0.18,0.63-0.28 L24.37,33L25,32.7z"/><polygon fill="#00b3d7" points="41,25.11 41,29.54 37,31.43 37,27"/><rect width="20.111" height="4" x="28.032" y="26.695" fill="#3dd9eb" transform="rotate(-25.351 38.085 28.693)"/></svg>