<svg xmlns="http://www.w3.org/2000/svg"  viewBox="0 0 48 48" width="50px" height="50px"><polygon fill="#6c19ff" points="24,16.063 15.493,6.315 18.507,3.685 24,9.979 29.493,3.685 32.507,6.315"/><polygon fill="#6c19ff" points="40.449,39.961 37,36.612 37,32 31,32 31,28 41,28 41,34.921 43.235,37.092"/><polygon fill="#6c19ff" points="17,23 7,23 7,16.079 4.765,13.908 7.551,11.039 11,14.388 11,19 17,19"/><polygon fill="#6c19ff" points="7.551,39.961 4.765,37.092 7,34.921 7,28 17,28 17,32 11,32 11,36.612"/><polygon fill="#6c19ff" points="41,23 31,23 31,19 37,19 37,14.388 40.449,11.039 43.235,13.908 41,16.079"/><path fill="#f5bc00" d="M24,40L24,40c-5.523,0-10-4.477-10-10V15h20v15C34,35.523,29.523,40,24,40z"/><circle cx="24" cy="15" r="7" fill="#f5bc00"/><path fill="#eb7900" d="M24,22c3.866,0,7-3.134,7-7H17C17,18.866,20.134,22,24,22z"/></svg>