<?xml version="1.0" encoding="UTF-8"?>
<svg id="Layer_1" data-name="Layer 1" xmlns="http://www.w3.org/2000/svg" viewBox="0 0 65.88 65.88">
  <defs>
    <style>
      .cls-1 {
        fill: #825da7;
      }

      .cls-2 {
        fill: #3c429b;
      }

      .cls-3 {
        fill: #6154a4;
      }

      .cls-4 {
        fill: #5bc8dd;
      }
    </style>
  </defs>
  <g>
    <rect class="cls-4" x="0" y="10.98" width="65.88" height="54.9"/>
    <polygon class="cls-3" points="15.12 25.61 2.32 38.42 2.33 38.43 2.32 38.44 15.12 51.25 20.3 46.07 12.66 38.43 20.3 30.79 15.12 25.61"/>
    <polygon class="cls-3" points="63.66 38.42 50.85 25.61 45.67 30.79 53.32 38.43 45.67 46.07 50.85 51.25 63.66 38.44 63.65 38.43 63.66 38.42"/>
    <rect class="cls-3" x="0" y="0" width="65.88" height="10.98"/>
    <rect class="cls-2" x="3.84" y="34.78" width="7.31" height="7.31" transform="translate(-24.98 16.55) rotate(-45)"/>
    <rect class="cls-2" x="54.83" y="34.78" width="7.31" height="7.31" transform="translate(-10.05 52.61) rotate(-45)"/>
    <rect class="cls-1" x="58.56" y="3.66" width="3.66" height="3.66"/>
    <rect class="cls-1" x="51.24" y="3.66" width="3.66" height="3.66"/>
    <rect class="cls-1" x="43.92" y="3.66" width="3.66" height="3.66"/>
    <path class="cls-2" d="m37.75,45.57h5.57c-.42,4.41-3.74,7.86-8.28,7.86h-3.77c-4.79,0-8.71-3.91-8.71-8.7v-12.55c0-4.83,3.91-8.74,8.71-8.74h3.77c4.58,0,7.86,3.49,8.28,7.97h-5.53c-.32-1.55-1.06-2.75-2.79-2.75h-3.7c-2.04,0-3.35,1.73-3.35,3.81v11.95c0,2.08,1.3,3.81,3.35,3.81h3.7c1.69,0,2.4-1.13,2.75-2.64Z"/>
  </g>
  <path class="cls-3" d="m46.45,20.49l-.09.1.09.09c.24.24.42.5.54.81.33.81.33,1.63,0,2.43-.23.57-.66,1.05-1.22,1.31-.83.37-1.61.29-2.49.29-1.3,0-2.35-1.07-2.35-2.39v-.27h1.45c0,.14.02.29.08.42.22.6,1.03.72,1.57.69.38-.02.78-.08,1.09-.31.4-.3.5-.92.36-1.46-.12-.46-.45-.75-.99-.85-.24-.05-.53-.08-.86-.08h-.47v-1.38h.47c.33,0,.62-.02.86-.08.25-.04.46-.12.62-.25.44-.35.52-1.09,0-1.54-.58-.5-2.74-.49-2.74.81h-1.45v-.28c0-1.54,1.4-2.37,2.77-2.37.68,0,.77.01.78.01.23.01.45.03.66.08.39.09.81.28,1.13.55.34.29.62.66.76,1.08.31.94.17,1.9-.59,2.58Z"/>
</svg>