<svg xmlns="http://www.w3.org/2000/svg"  viewBox="0 0 48 48" width="50px" height="50px" baseProfile="basic"><polygon fill="#199be2" points="38,24.012 38,27 42.023,27 42.023,27.984 44.977,27.984 44.977,24.012"/><path fill="#f5bc00" d="M33.076,12.888C32.738,11.174,31.132,10,29.385,10H13.713c-1.747,0-3.353,1.174-3.691,2.888	C9.68,14.627,10.586,16.195,12,16.881v3.369h0.124v2.799h18.849v-6.101C32.461,16.298,33.428,14.679,33.076,12.888z"/><path fill="#3dd9eb" d="M4,42h36v-8H4V42z"/><path fill="#3dd9eb" d="M4,38v-9c0-5,4.1-9,9-9h18c5,0,9,4,9,9v9H4z"/><path fill="#c2ffff" d="M36,34.5c0,0.8-0.7,1.5-1.5,1.5S33,35.3,33,34.5s0.7-1.5,1.5-1.5S36,33.7,36,34.5z"/><rect width="4.008" height="3.059" x="6.992" y="41.941" fill="#3dd9eb"/><rect width="4.008" height="3.059" x="32.973" y="41.941" fill="#3dd9eb"/><rect width="3" height="5.988" x="20" y="2.012" fill="#eb7900"/><rect width="3" height="3.984" x="14" y="4" fill="#eb7900"/><rect width="3" height="3.984" x="26" y="4.016" fill="#eb7900"/><rect width="18.984" height="3.008" x="11.984" y="19.992" fill="#00b3d7"/><rect width="4.008" height="1.992" x="6.992" y="40.008" fill="#00b3d7"/><rect width="4.008" height="1.992" x="32.973" y="40.008" fill="#00b3d7"/></svg>