<?xml version="1.0" standalone="no"?>
<!DOCTYPE svg PUBLIC "-//W3C//DTD SVG 20010904//EN"
 "http://www.w3.org/TR/2001/REC-SVG-20010904/DTD/svg10.dtd">
<svg version="1.0" xmlns="http://www.w3.org/2000/svg"
 width="700.000000pt" height="700.000000pt" viewBox="0 0 700.000000 700.000000"
 preserveAspectRatio="xMidYMid meet">
<metadata>
Created by potrace 1.14, written by Peter Selinger 2001-2017
</metadata>
<g transform="translate(0.000000,700.000000) scale(0.100000,-0.100000)"
fill="#000000" stroke="none">
<path d="M0 6420 l0 -580 3500 0 3500 0 0 580 0 580 -3500 0 -3500 0 0 -580z"/>
<path d="M4547 5266 c-107 -30 -184 -113 -194 -209 l-6 -57 75 0 74 0 12 34
c34 94 228 117 296 35 50 -59 23 -148 -52 -169 -20 -5 -65 -10 -99 -10 l-63 0
0 -74 0 -73 80 -6 c50 -3 90 -11 106 -22 86 -56 84 -198 -4 -242 -25 -12 -60
-18 -107 -18 -88 1 -131 21 -154 76 l-16 39 -74 0 -74 0 5 -50 c10 -99 86
-195 176 -220 48 -13 207 -13 271 1 177 38 268 239 189 420 -11 26 -28 55 -39
65 -25 23 -24 30 11 70 37 43 54 104 47 175 -9 99 -66 177 -162 220 -62 28
-223 36 -298 15z"/>
<path d="M3163 4496 c-358 -67 -629 -318 -737 -681 -20 -68 -21 -94 -24 -855
-3 -829 -2 -868 42 -998 107 -313 350 -535 678 -618 85 -21 554 -31 694 -15
245 29 453 145 594 332 98 131 167 294 185 443 l7 56 -294 0 -294 0 -22 -67
c-31 -94 -78 -155 -145 -187 l-54 -27 -284 3 c-280 3 -285 3 -333 28 -97 49
-170 150 -195 268 -15 74 -15 1400 0 1474 25 117 103 224 197 270 45 22 58 23
327 26 240 2 286 1 323 -14 83 -31 138 -99 171 -212 l17 -57 293 -3 293 -2 -7
57 c-37 299 -233 581 -490 704 -156 76 -200 82 -555 85 -231 2 -334 -1 -387
-10z"/>
<path d="M920 3595 l-675 -675 683 -683 682 -682 270 270 c148 148 270 274
270 280 0 5 -181 191 -402 412 l-403 403 405 405 405 405 -270 270 c-148 148
-274 270 -280 270 -5 0 -314 -304 -685 -675z"/>
<path d="M5125 4000 l-270 -270 403 -403 c221 -221 402 -407 402 -413 0 -6
-180 -188 -400 -404 -220 -215 -400 -397 -400 -404 0 -6 122 -133 270 -281
l270 -270 683 683 682 682 -675 675 c-371 371 -679 675 -685 675 -6 0 -132
-122 -280 -270z"/>
</g>
</svg>
