<svg xmlns="http://www.w3.org/2000/svg"  viewBox="0 0 48 48" width="50px" height="50px"><path fill="#3dd9eb" d="M40,6H8v38h32V6z"/><rect width="14" height="6" x="17" y="3" fill="#f5bc00"/><rect width="14" height="3" x="17" y="6" fill="#eb7900"/><path fill="#6c19ff" d="M37,36H19v-3h18V36z"/><path fill="#6c19ff" d="M37,27H19v-3h18V27z"/><path fill="#6c19ff" d="M37,18H19.1v-3H37V18z"/><path fill="#6c19ff" d="M15.7,30h-4.5v-1.9c0-1,0.8-1.9,1.9-1.9h0.8c0.2,0,0.4-0.2,0.4-0.4s-0.2-0.4-0.4-0.4h-2.2V24h2.2 c1,0,1.9,0.8,1.9,1.9s-0.8,1.9-1.9,1.9H13c-0.2,0-0.4,0.2-0.4,0.4v0.4h3V30z"/><rect width="1.5" height="6" x="12.8" y="15" fill="#6c19ff"/><rect width="4.5" height="1.5" x="11.3" y="19.5" fill="#6c19ff"/><rect width="1.5" height="1.5" x="11.3" y="15.8" fill="#6c19ff"/><path fill="#6c19ff" d="M14.1,39h-3v-1.5h3c0.2,0,0.4-0.1,0.4-0.4c0-0.2-0.1-0.4-0.4-0.4h-3v-1.5l1.4-0.7H11v-1.5h4.5v1.4l-1.3,0.8 c1,0,1.9,0.8,1.9,1.9C15.9,38.2,15.1,39,14.1,39z"/></svg>