<svg xmlns="http://www.w3.org/2000/svg"  viewBox="0 0 48 48" width="50px" height="50px"><path fill="#3ddab4" d="M40,32c-3.314,0-6-2.686-6-6s2.686-6,6-6c1.094,0,2.117,0.298,3,0.809V9H9v34h34V31.191 C42.117,31.702,41.094,32,40,32z"/><circle cx="26" cy="6" r="6" fill="#3ddab4"/><circle cx="6" cy="26" r="6" fill="#3ddab4"/><path fill="#00b569" d="M12,26c0-2.22-1.208-4.153-3-5.191v10.381C10.792,30.153,12,28.22,12,26z"/><path fill="#00b569" d="M26,12c2.22,0,4.153-1.208,5.191-3H20.809C21.847,10.792,23.78,12,26,12z"/></svg>